<svg height="32" viewBox="0 0 32 32" width="32" xmlns="http://www.w3.org/2000/svg"><path d="m31.99 15.74c-.005-.125-.01-.245-.026-.37v-.005c-.115-1.344-.568-2.635-1.318-3.75-.333-.505-.724-.969-1.156-1.385-.646-.62-1.38-1.125-2.188-1.51-1.271-.599-2.661-.901-4.068-.891-1.156-.005-2.307.198-3.396.594-.875.307-1.698.755-2.427 1.328-.151.125-.302.25-.443.385l-.115.115-.156.167-.109.109-.188.198c-.141.156-.271.313-.396.464l-.005-.005c-.255.307-.49.635-.667.922-.12.188-.234.38-.344.573l-1.531 3.089h.005l-.083.161-.167.339c-.333.682-.693 1.359-1.094 1.917-.896.979-1.906 1.464-3.208 1.464-.089 0-.182-.005-.276-.01-.786-.031-1.458-.219-2.052-.573-.563-.323-1.026-.797-1.328-1.37-.307-.563-.453-1.193-.432-1.828v-.047c.042-1.01.427-1.802 1.208-2.479.188-.167.385-.302.594-.427.026-.016.057-.031.083-.047.583-.318 1.24-.474 1.99-.474l.234.005c1.203.047 2.125.422 2.865 1.151l2.307-4.151c-.583-.385-1.208-.703-1.865-.943-.026-.01-.052-.026-.078-.031-.083-.031-.167-.063-.25-.089-.74-.245-1.51-.401-2.286-.464-.021 0-.042-.005-.063-.005-.12-.01-.245-.021-.365-.026-.13-.005-.266-.01-.396-.01h-.073c-1.396-.01-2.776.297-4.036.891-1.354.641-2.51 1.641-3.339 2.891-.891 1.333-1.365 2.901-1.354 4.505-.005 2.089.755 3.917 2.266 5.458 1.583 1.615 3.63 2.484 6.094 2.589.156.005.313.01.469.01 1.391 0 2.682-.25 3.839-.745.286-.125.568-.266.854-.427.156-.089.302-.188.453-.286l.104-.073.182-.125c.219-.156.422-.328.625-.51l.068-.068c.12-.109.234-.224.344-.339l.417-.469.156-.198.078-.109.073-.104c.615-1.031 2.62-4.802 2.62-4.802v-.005l.12-.229.099-.182c.292-.536.505-.917.792-1.318l.005-.016c.656-.953 1.792-1.635 3.13-1.75 2.24-.193 4.203 1.281 4.38 3.286.182 2.01-1.49 3.797-3.729 3.99-.453.036-.906.01-1.349-.089l-.01.005c-1.646-.344-2.693-1.536-3.208-2.078l-2.156 3.969s.672.672 1.13 1.01c.464.339 1.057.667 1.531.875 1.193.516 2.479.786 3.781.786.161 0 .13 0 .297-.01 2.458-.099 4.651-1.042 6.234-2.656 1.495-1.536 2.307-3.286 2.318-5.359v-.063z"/></svg>